# xmcd
#
# Track frame offsets:
#	150
#	12802
#	26164
#	41956
#	54558
#	69595
#	86544
#	100706
#	122468
#	136135
#	149545
#	163394
#	174984
#	191738
#	206918
#	223682
#
# Disc length: 3237 seconds
#
# Revision: 0
# Processed by: cddbd v1.4PL0 Copyright (c) Steve Scherf et al.
# Submitted via: EasyCDDAExtractor 4.6.9.1
#
DISCID=ed0ca310
DTITLE=Peter Green - The Robert Johnson Songbook
DYEAR=1998
DGENRE=Blues
TTITLE0=When You Got A Good Friend
TTITLE1=32 - 20 Blues
TTITLE2=Phonograph Blues
TTITLE3=Last Fair Deal Gone Down
TTITLE4=Stop Breakin' Down Blues
TTITLE5=Terraplane Blues
TTITLE6=Walkin' Blues
TTITLE7=Love In Vain Blues
TTITLE8=Ramblin' On My Mind
TTITLE9=Stones In My Passway
TTITLE10=Me And The Devil Blues
TTITLE11=Honeymoon Blues
TTITLE12=Kind Hearted Woman Blues
TTITLE13=I Believe I'll Dust My Broom
TTITLE14=If I Had Possession Over Judgment Day
TTITLE15=Sweet Home Chicago
EXTD=(c) 1998 Snapper Music\n
EXTT0=
EXTT1=
EXTT2=
EXTT3=
EXTT4=
EXTT5=
EXTT6=
EXTT7=
EXTT8=
EXTT9=
EXTT10=
EXTT11=
EXTT12=
EXTT13=
EXTT14=
EXTT15=
PLAYORDER=
